# xmcd
#
# Track frame offsets: 
#        150
#        20132
#        40337
#        55100
#        76030
#        96852
#        112292
#        128372
#        143355
#        158432
#        175207
#
# Disc length: 2499 seconds
#
# Revision: 13
# Processed by: cddbd v1.5.2PL0 Copyright (c) Steve Scherf et al.
# Submitted via: ExactAudioCopy v1.3
#
DISCID=8009c10b
DTITLE=Element of Crime - Die schönen Rosen
DYEAR=1996
DGENRE=Pop-Rock
TTITLE0=Nur so
TTITLE1=Wenn der Morgen graut
TTITLE2=Die schönen Rosen
TTITLE3=Mit dir allein
TTITLE4=Abendbrot
TTITLE5=Ohne dich
TTITLE6=Tumbling tumbleweed
TTITLE7=Nichts mehr wie es war
TTITLE8=Wer ich wirklich bin
TTITLE9=Über Nacht
TTITLE10=Ulrikes Lied
EXTD=YEAR: 1996
EXTT0=
EXTT1=
EXTT2=
EXTT3=
EXTT4=
EXTT5=
EXTT6=
EXTT7=
EXTT8=
EXTT9=
EXTT10=
PLAYORDER=
